<?xml version="1.0" encoding="utf-8"?>
<!-- Generator: Adobe Illustrator 24.2.1, SVG Export Plug-In . SVG Version: 6.00 Build 0)  -->
<svg version="1.1" xmlns="http://www.w3.org/2000/svg" xmlns:xlink="http://www.w3.org/1999/xlink" x="0px" y="0px"
	 viewBox="0 0 2000 1000" style="enable-background:new 0 0 2000 1000;" xml:space="preserve">
<style type="text/css">
	.st0{fill:#EA0029;}
	.st1{fill:#00B2E3;}
	.st2{fill-rule:evenodd;clip-rule:evenodd;fill:#EA0029;}
	.st3{fill-rule:evenodd;clip-rule:evenodd;fill:#BCCF00;}
	.st4{fill:#BCCF00;}
	.st5{fill-rule:evenodd;clip-rule:evenodd;fill:#005F7F;}
	.st6{fill:#005F7F;}
	.st7{fill-rule:evenodd;clip-rule:evenodd;fill:#0BB2D9;}
	.st8{fill-rule:evenodd;clip-rule:evenodd;fill:#00B2E3;}
	.st9{fill-rule:evenodd;clip-rule:evenodd;fill:#E10429;}
</style>
<g id="Slogan">
	<g>
		<g>
			<path class="st0" d="M883.1,681.4h44.8v8.7h-35.8v16.6h19.7v8.8h-19.7v36.8h-9V681.4z"/>
			<path class="st0" d="M972,706.7h8.6v45.6H972V747c-4.3,3.6-9.7,6.3-15.3,6.3c-6.4,0-12.3-2.4-16.9-6.9c-4.5-4.6-7-10.6-7-16.9
				s2.5-12.3,7-16.9c4.6-4.5,10.5-6.9,16.9-6.9c5.7,0,11,2.7,15.3,6.3V706.7z M972,729.5c0-8.5-6.9-15.4-15.3-15.4
				c-8.5,0-15.3,7-15.3,15.4c0,8.5,6.9,15.4,15.3,15.4C965.1,744.9,972,737.9,972,729.5z"/>
			<path class="st0" d="M1040,743.5c-0.8,1-1.6,2-2.5,2.9c-4.5,4.5-10.5,6.9-16.8,6.9s-12.4-2.4-16.9-6.9c-4.5-4.6-7-10.6-7-16.9
				s2.5-12.3,7-16.9c4.5-4.5,10.5-6.9,16.9-6.9s12.3,2.4,16.8,6.9c0.9,0.9,1.7,1.8,2.4,2.8l-6.9,5.1c-2.8-3.8-7.3-6.4-12.3-6.4
				c-8.5,0-15.3,7-15.3,15.4c0,8.5,6.9,15.4,15.3,15.4c5.1,0,9.6-2.6,12.3-6.5L1040,743.5z"/>
			<path class="st0" d="M1057.1,693.6c0-3.1,2.5-5.6,5.7-5.6c3.1,0,5.6,2.5,5.6,5.6c0,3.1-2.5,5.7-5.6,5.7
				C1059.6,699.3,1057.1,696.7,1057.1,693.6z M1058.5,706.7h8.6v45.6h-8.6V706.7z"/>
			<path class="st0" d="M1088.7,752.3v-73.1h8.6v73.1H1088.7z"/>
			<path class="st0" d="M1118.7,693.6c0-3.1,2.5-5.6,5.7-5.6c3.1,0,5.6,2.5,5.6,5.6c0,3.1-2.5,5.7-5.6,5.7
				C1121.2,699.3,1118.7,696.7,1118.7,693.6z M1120.1,706.7h8.6v45.6h-8.6V706.7z"/>
			<path class="st0" d="M1154.1,737.1v-22.3h-6.8v-8.2h6.8v-17.6h8.6v17.6h14v8.2h-14v22.1c0,3.7,3.2,7.2,6.8,7.2h7.7l2.2,8.2h-10.1
				C1160.9,752.3,1154.1,745.6,1154.1,737.1z"/>
			<path class="st0" d="M1228.7,706.7h8.6v45.6h-8.6V747c-4.3,3.6-9.7,6.3-15.3,6.3c-6.4,0-12.3-2.4-16.9-6.9
				c-4.5-4.6-7-10.6-7-16.9s2.5-12.3,7-16.9c4.6-4.5,10.5-6.9,16.9-6.9c5.7,0,11,2.7,15.3,6.3V706.7z M1228.7,729.5
				c0-8.5-6.9-15.4-15.3-15.4s-15.3,7-15.3,15.4c0,8.5,6.9,15.4,15.3,15.4S1228.7,737.9,1228.7,729.5z"/>
			<path class="st0" d="M1335.4,727.8v24.5h-8.6v-24.5c0-7.5-6.1-13.6-13.4-13.6c-7.5,0-13.5,6.2-13.5,13.6v24.5h-8.6v-24.5
				c0-7.5-6-13.6-13.4-13.6c-7.4,0-13.4,6.2-13.4,13.6v24.5h-8.6v-45.6h8.6v4.4c3.9-3,8.6-5.3,13.4-5.3c5.9,0,11.4,2.6,15.6,6.8
				c0.8,0.8,1.5,1.6,2.1,2.5c0.7-0.9,1.4-1.7,2.2-2.5c4.2-4.2,9.8-6.8,15.6-6.8c5.9,0,11.3,2.2,15.5,6.4
				C1333.1,716.3,1335.4,721.8,1335.4,727.8z"/>
			<path class="st0" d="M1398.5,729.5c0,6.4-2.5,12.3-7.1,16.9c-4.5,4.5-10.5,7-16.8,7s-12.3-2.5-16.9-7c-4.5-4.6-7-10.6-7-16.9
				s2.5-12.3,7-16.9c4.6-4.5,10.5-6.9,16.9-6.9s12.3,2.4,16.8,6.9C1396,717.1,1398.5,723.1,1398.5,729.5z M1389.9,729.5
				c0-8.5-6.9-15.2-15.3-15.2c-8.5,0-15.3,6.8-15.3,15.2c0,8.5,6.9,15.3,15.3,15.3C1383.1,744.8,1389.9,737.9,1389.9,729.5z"/>
			<path class="st0" d="M1446.8,738.8c0,2.6-0.7,5.1-2.2,7.2c-1.4,2.1-3.4,3.7-6.1,5c-2.4,1.1-5.3,1.7-8.2,1.7
				c-1.6,0-3.1-0.2-4.7-0.5c-5-1-9.7-3.2-13.6-6.6l5.4-5.9c5.3,4.5,9.8,5.4,12.5,5.4c1.9,0,3.7-0.4,5.3-1.1c1.3-0.6,3.6-2.1,3.6-5.2
				c0-3.1-2.7-5-8.9-6.1c-0.3-0.1-7.9-1.5-10.7-3.1c-4.2-2.4-6.4-6.1-6.4-10.6c0-2.5,0.8-4.9,2.2-7c1.3-1.8,3.1-3.2,5.7-4.4
				c2.4-1.1,5-1.7,7.9-1.7c1.1,0,2.3,0.1,3.4,0.2c4.4,0.7,8.7,2.6,12.2,5.5l-5,5.8c-4.5-3.5-8.4-4-10.3-4c-1.8,0-3.5,0.3-4.9,1
				c-2,1-3.3,2.8-3.3,4.6c0,3,2.4,4.6,8.5,5.9c0.1,0,8.3,1.8,10.5,3.1c2.7,1.4,3.7,2.5,4.8,3.9
				C1446.1,733.8,1446.8,736.2,1446.8,738.8z"/>
			<path class="st0" d="M1496.4,737.1v-22.3h-6.8v-8.2h6.8v-17.6h8.6v17.6h14v8.2h-14v22.1c0,3.7,3.2,7.2,6.8,7.2h7.7l2.2,8.2h-10.1
				C1503.2,752.3,1496.4,745.6,1496.4,737.1z"/>
			<path class="st0" d="M1536.7,732.8v-26.1h8.6v26.1c0,6.7,5.6,12.1,12.5,12.1c6.9,0,12.5-5.5,12.5-12.1v-26.1h8.6v26.1
				c0,5.6-2.3,10.7-6.3,14.6c-4,3.9-9.3,5.9-14.8,5.9c-5.7,0-11-2-14.9-5.9C1538.9,743.5,1536.7,738.3,1536.7,732.8z"/>
			<path class="st0" d="M1660.4,738.8c0,2.6-0.7,5.1-2.2,7.2c-1.4,2.1-3.4,3.7-6.1,5c-2.4,1.1-5.3,1.7-8.2,1.7
				c-1.6,0-3.1-0.2-4.7-0.5c-5-1-9.7-3.2-13.6-6.6l5.4-5.9c5.3,4.5,9.8,5.4,12.5,5.4c1.9,0,3.7-0.4,5.3-1.1c1.3-0.6,3.6-2.1,3.6-5.2
				c0-3.1-2.7-5-8.9-6.1c-0.3-0.1-7.9-1.5-10.7-3.1c-4.2-2.4-6.4-6.1-6.4-10.6c0-2.5,0.8-4.9,2.2-7c1.3-1.8,3.1-3.2,5.7-4.4
				c2.4-1.1,5-1.7,7.9-1.7c1.1,0,2.3,0.1,3.4,0.2c4.4,0.7,8.7,2.6,12.2,5.5l-5,5.8c-4.5-3.5-8.4-4-10.3-4c-1.8,0-3.5,0.3-4.9,1
				c-2,1-3.3,2.8-3.3,4.6c0,3,2.4,4.6,8.5,5.9c0.1,0,8.3,1.8,10.5,3.1c2.7,1.4,3.7,2.5,4.8,3.9
				C1659.7,733.8,1660.4,736.2,1660.4,738.8z"/>
			<path class="st0" d="M1713.7,706.7h8.6v45.6h-8.6V747c-4.3,3.6-9.7,6.3-15.3,6.3c-6.4,0-12.3-2.4-16.9-6.9
				c-4.5-4.6-7-10.6-7-16.9s2.5-12.3,7-16.9c4.6-4.5,10.5-6.9,16.9-6.9c5.7,0,11.1,2.7,15.3,6.3V706.7z M1713.7,729.5
				c0-8.5-6.9-15.4-15.3-15.4c-8.5,0-15.3,7-15.3,15.4c0,8.5,6.9,15.4,15.3,15.4C1706.8,744.9,1713.7,737.9,1713.7,729.5z"/>
			<path class="st0" d="M1742.3,752.3v-73.1h8.6v73.1H1742.3z"/>
			<path class="st0" d="M1770.8,732.8v-26.1h8.6v26.1c0,6.7,5.6,12.1,12.5,12.1c6.9,0,12.5-5.5,12.5-12.1v-26.1h8.6v26.1
				c0,5.6-2.3,10.7-6.3,14.6c-4,3.9-9.3,5.9-14.8,5.9c-5.7,0-11-2-14.9-5.9C1772.9,743.5,1770.8,738.3,1770.8,732.8z"/>
			<path class="st0" d="M1868.8,679.2h8.6v73.1h-8.6V747c-4.3,3.6-9.7,6.3-15.3,6.3c-6.4,0-12.3-2.4-16.9-6.9
				c-4.5-4.6-7-10.6-7-16.9s2.5-12.3,7-16.9c4.6-4.5,10.5-6.9,16.9-6.9c5.7,0,11.1,2.7,15.3,6.3V679.2z M1868.8,729.5
				c0-8.5-6.9-15.4-15.3-15.4c-8.5,0-15.3,7-15.3,15.4c0,8.5,6.9,15.4,15.3,15.4C1861.9,744.9,1868.8,737.9,1868.8,729.5z"/>
		</g>
	</g>
</g>
<g id="Logotipo">
	<g>
		<g>
			<g>
				<g>
					<path class="st1" d="M1004.2,648.2V536.8l-43.6,59.5l-43.3-59.5v111.5h-31.2V481.5h29.3l45.2,62.1l45.2-62.1h29.5v166.8H1004.2
						z"/>
					<path class="st1" d="M1116.4,650.8c-6.8,0-13.8-1.6-20.4-4.7c-6.1-2.6-11.7-6.8-16.9-12.2c-8.2-8.9-13.1-20.6-14.3-32.8
						c-0.2-2.1-0.5-4.2-0.5-6.6c0-4.7,0.7-9.6,1.9-14.5c2.1-9.4,6.6-18,12.9-24.6c4.7-5.2,10.1-9.1,16.9-12.4
						c6.3-3,13.4-4.4,20.6-4.4c7.5,0,14.3,1.4,20.6,4.4c7,3.3,12.6,7.5,16.9,12.4c6.1,6.6,10.8,15,13.1,24.6
						c1.2,4.5,1.6,9.1,1.6,14.5c0,1.9,0,3.7,0,5.4h-78.7l0.2,1.6c3,14.5,14.1,25.1,26.2,25.1h0.2c6.8-0.5,14.3-4.7,18.7-8.4l2.6-2.1
						l19.4,16.9l-3.5,3c-2.6,2.3-5.9,5.2-9.4,7h-0.2c-8.4,4.9-17.6,7.5-27.9,7.7H1116.4z M1093.4,579.1l-0.9,1.9h48.5l-0.9-1.9
						c-5.4-10.1-14.3-16.2-23.4-16.2C1107.5,563,1098.3,569.3,1093.4,579.1z"/>
					<path class="st1" d="M1198.1,634.2c-10.5-10.8-16.4-24.8-16.4-39.6c0-14.8,5.9-28.8,16.4-39.6c10.5-10.5,24.6-16.2,39.6-16.2
						c9.8,0,18.7,3.5,26.5,10.5l1.2,0.9v-74h28.3v171.9h-28.3v-8.4l-1.2,1.2c-8.4,8.2-18,9.4-26.5,9.4
						C1222.9,650.3,1208.9,644.7,1198.1,634.2z M1210,594.6c0,15.5,12.6,28.3,27.6,28.3c15,0,27.6-12.9,27.6-28.3
						c0-15.2-12.6-28.3-27.6-28.3C1222.7,566.3,1210,579.4,1210,594.6z"/>
					<path class="st1" d="M1328.3,510c0-4.9,1.9-9.4,5.4-12.6c3.5-3.5,8-5.4,12.9-5.4c9.8,0,18,8.2,18,18c0,9.8-8.2,18-18,18
						C1336.5,528.1,1328.3,519.9,1328.3,510z M1331.3,648.2V541h30.4v107.3H1331.3z"/>
					<path class="st1" d="M1401.4,634.4l-0.2-0.2c-10.3-10.5-16.2-24.6-16.2-39.6c0-15,5.9-29.3,16.2-39.8
						c10.5-10.3,24.6-16.2,39.8-16.2c15.5,0,29.5,5.6,39.6,16.2c2.3,2.3,4.2,4.5,5.9,6.6l2.8,4.2l-23,17.1l-3.3-4.4
						c-5.6-7.5-13.8-12.2-22-12.2c-14.8,0-27.4,13.1-27.4,28.6c0,15.5,12.6,28.6,27.4,28.6c8.2,0,16.4-4.7,22-12.6l3-4.2l23.9,17.1
						l-3.5,4.4c-0.5,0.7-1.2,1.4-1.9,2.1c-1.2,1.4-2.6,3-4,4.5c-10.3,10.3-24.4,16.2-39.6,16.2
						C1426,650.6,1411.9,644.7,1401.4,634.4z"/>
					<path class="st1" d="M1515.2,634.2c-10.5-10.8-16.4-24.8-16.4-39.6c0-14.8,5.9-28.8,16.4-39.6c10.5-10.5,24.6-16.2,39.6-16.2
						c9.8,0,18.7,3.5,26.5,10.5l1.2,0.9V541h28.3v107.3h-28.3v-8.4l-1.2,1.2c-8.4,8.2-18,9.4-26.5,9.4
						C1540,650.3,1526,644.7,1515.2,634.2z M1527.1,594.6c0,15.5,12.6,28.3,27.6,28.3c15,0,27.6-12.9,27.6-28.3
						c0-15.2-12.6-28.3-27.6-28.3C1539.8,566.3,1527.1,579.4,1527.1,594.6z"/>
					<path class="st1" d="M1685.2,648.2c-10.3,0-19.9-4-26.9-11c-7.3-7.3-11-16.6-11-26.9v-44.5h-15v-24.1h15v-42.2h27.9v42.2h31.1
						v24.1h-31.1v44c0,5.9,5.2,11.2,10.3,11.2h20.4l7.5,27.2H1685.2z"/>
					<path class="st1" d="M1774.2,650.8c-6.8,0-13.8-1.6-20.4-4.7c-6.1-2.6-11.7-6.8-16.9-12.2c-8.2-8.9-13.1-20.6-14.3-32.8
						c-0.2-2.1-0.5-4.2-0.5-6.6c0-4.7,0.7-9.6,1.9-14.5c2.1-9.4,6.6-18,12.9-24.6c4.7-5.2,10.1-9.1,16.9-12.4
						c6.3-3,13.4-4.4,20.6-4.4c7.5,0,14.3,1.4,20.6,4.4c7,3.3,12.6,7.5,16.9,12.4c6.1,6.6,10.8,15,13.1,24.6
						c1.2,4.5,1.6,9.1,1.6,14.5c0,1.9,0,3.7,0,5.4H1748l0.2,1.6c3,14.5,14.1,25.1,26.2,25.1h0.2c6.8-0.5,14.3-4.7,18.7-8.4l2.6-2.1
						l19.4,16.9l-3.5,3c-2.6,2.3-5.9,5.2-9.4,7h-0.2c-8.4,4.9-17.6,7.5-27.9,7.7H1774.2z M1751.2,579.1l-0.9,1.9h48.5l-0.9-1.9
						c-5.4-10.1-14.3-16.2-23.4-16.2C1765.3,563,1756.2,569.3,1751.2,579.1z"/>
					<path class="st1" d="M1846.3,648.2V476.3h30.4v171.9H1846.3z"/>
				</g>
			</g>
			<circle class="st2" cx="1345.8" cy="509.9" r="18.3"/>
		</g>
		<g>
			<path class="st1" d="M986.6,454.3c-5.3-2.3-10-5.8-13.9-10.4c-4-4.6-7.6-9.2-10.9-13.7c-3.6-5.2-7.3-11-11-17.4
				c-3.7-6.5-7.8-12.6-12.1-18.4c-4.3-5.8-8.9-10.7-13.8-14.6c-4.9-4-10.3-6-16.3-6c-1.1,0-1.9,1.3-2.5,3.9c-0.5,2.6-1,5.7-1.3,9.3
				c-0.3,3.6-0.5,7.4-0.7,11.5c-0.2,4.1-0.2,7.6-0.2,10.5c-0.2,6.4,0.1,12.5,0.8,18.1c0.7,5.7,1.2,10.7,1.4,15
				c0.2,4.3,0,7.7-0.7,10.1c-0.7,2.4-2.5,3.6-5.5,3.4c-2.5-0.2-4.9-0.9-7.3-2.3c-2.3-1.4-4.5-3.2-6.4-5.5c-2-2.3-3.6-4.9-5-7.8
				c-1.4-3-2.3-6.1-2.8-9.4c-1.3-9.4-1.8-20-1.8-31.8c0.1-11.9,1.2-23.7,3.4-35.5c2.2-11.8,5.6-23,10.2-33.7
				c4.6-10.7,10.9-19.6,18.9-26.6c4.5-4.1,9.6-7.1,15.2-9.1c5.6-2,11.1-2.8,16.5-2.5c5.4,0.4,10.4,2,15,4.8
				c4.6,2.8,8.2,7.1,10.9,12.9c3,6.6,3.6,12.7,2,18.5c-1.6,5.8-4.6,11-8.9,15.6c-4.3,4.6-9.3,8.4-15.1,11.5c-5.8,3-11.2,5-16.4,6
				c3.9,1.4,8.2,3.7,12.9,6.9c4.7,3.2,9.3,6.7,13.8,10.5c4.5,3.8,8.9,7.8,13,11.9c4.1,4.1,7.8,7.9,10.9,11.4
				c3.4,3.9,6.2,7.1,8.3,9.6c2.1,2.5,3.9,4.8,5.3,6.9c1.4,2.1,2.6,4.2,3.6,6.3c1,2.1,2.1,4.8,3.2,8.1c2,5.5,2.7,9.8,2,13
				c-0.7,3.2-2,5.6-3.7,7.1c-1.8,1.6-3.8,2.5-6,2.7C989.4,455.1,987.7,454.9,986.6,454.3z M946.8,309.8c-4.7,0.8-8.8,2.6-12.4,5.5
				c-3.6,2.9-6.8,6.4-9.5,10.5c-2.7,4.1-5.2,8.7-7.3,13.6c-2.1,4.9-4.1,9.8-6,14.6c2.5,0.9,5.5,0.9,9.1-0.2c3.6-1.1,7.2-2.8,10.8-5
				c3.6-2.3,7-5,10.3-8.2c3.3-3.2,5.8-6.6,7.5-10.2c1.7-3.6,2.5-7.2,2.3-10.8C951.6,316,949.9,312.7,946.8,309.8z"/>
			<path class="st1" d="M1011.9,365.3c2.2-4.2,5.1-7.9,8.7-11c3.6-3.1,7.5-5.7,11.8-7.6c4.3-2,8.8-3.4,13.6-4.3
				c4.8-0.9,9.4-1.4,13.9-1.4c4.7,0.3,8.7,1.8,12.1,4.6c3.4,2.7,5.7,6.2,7.1,10.5s1.7,9.1,0.8,14.4c-0.9,5.3-3.2,10.7-6.9,16.2
				c-4.1,5.9-8.4,10.4-13,13.4c-4.6,3-8.9,5.1-12.8,6.3c-4.5,1.6-9,2.3-13.3,2.1c-0.2,5.9,0.5,11,1.9,15.2c0.6,1.9,1.4,3.6,2.2,5.3
				c0.9,1.6,2,3.1,3.4,4.3c1.4,1.3,3.1,2.1,5.2,2.7c2,0.5,4.4,0.6,7,0.1c5.6-0.9,10.2-3,13.7-6.2c3.5-3.2,6.4-6.4,8.8-9.7
				c2.3-3.3,4.3-6.1,5.7-8.5c1.5-2.4,2.9-3.3,4.3-2.7c1.7,0.8,2.6,2.7,2.7,5.9c0.1,3.1-0.7,6.8-2.2,11c-1.6,4.2-3.9,8.5-6.9,13
				c-3,4.4-6.9,8.2-11.6,11.4c-4.7,3.1-10.1,5.3-16.2,6.4c-6.1,1.2-12.9,0.6-20.4-1.8c-6.1-1.9-11.2-4.8-15.2-8.9
				c-4.1-4.1-7.3-8.7-9.6-14.1c-2.3-5.3-3.9-11-4.7-17.1c-0.8-6.1-0.9-12.1-0.4-18.1c0.5-6,1.7-11.7,3.5-17.2
				C1007,373.9,1009.3,369.2,1011.9,365.3z M1033.7,390.8c2-0.3,4.3-0.9,6.8-1.9c2.2-0.8,4.6-1.9,7.1-3.5c2.6-1.6,5.3-3.7,8.3-6.6
				c2.8-2.7,4.7-5.2,5.7-7.7c1-2.5,1.6-4.6,1.8-6.3c0.2-2-0.2-3.9-0.9-5.6c-2.2-0.6-4.5-0.6-7,0c-2.2,0.6-4.6,1.9-7.3,3.7
				c-2.7,1.9-5.4,4.8-8.2,8.9c-2.2,3.1-3.7,5.9-4.7,8.3c-0.9,2.4-1.6,4.4-1.9,6C1033.1,388,1033.2,389.6,1033.7,390.8z"/>
			<path class="st1" d="M1159.7,371.8c0.9-10.5,1.7-20.3,2.3-29.5c0.5-8,0.9-15.8,1.2-23.7c0.3-7.8,0.3-13.7,0-17.8
				c-0.3-3.9,0.6-7.5,2.7-10.8c2.1-3.3,4.6-6.1,7.4-8.4c2.8-2.3,5.6-4.1,8.4-5.4c2.8-1.2,4.8-1.9,6.1-1.9c1.2,0,2,3.1,2.2,9.4
				c0.2,6.2,0.2,14.3,0,24.2c-0.2,9.9-0.5,21.1-0.9,33.6c-0.4,12.5-0.5,25.1-0.4,37.7c0.2,11.7,0.9,21.2,2.1,28.6
				c1.2,7.3,2.8,13.1,4.8,17.2c1.9,4.1,4,7.1,6.2,8.8c2.2,1.7,4.3,2.9,6.3,3.4c2,0.5,3.7,0.9,5.2,1.1c1.4,0.2,2.3,0.7,2.8,1.6
				c0.6,1.4,0.1,3.2-1.5,5.4c-1.6,2.2-4.1,4.1-7.3,5.6c-3.2,1.6-7,2.4-11.4,2.5c-4.4,0.1-9-1.2-13.8-3.9c-4.1-2.2-7.1-5.1-9.1-8.8
				c-2-3.7-3.4-7.3-4.2-10.9c-0.9-4.1-1.3-8.3-1.2-12.6c-3.4,6.2-7.5,11.7-12.2,16.4c-2,2-4.3,4-6.8,5.9c-2.5,1.9-5.2,3.5-8.2,4.9
				c-3,1.4-6.2,2.5-9.6,3.3c-3.4,0.8-7.1,1-11,0.7c-4.2-0.3-8-2-11.4-5c-3.4-3-6.2-6.9-8.4-11.5c-2.3-4.6-3.9-9.8-4.9-15.5
				c-1-5.7-1.4-11.4-1.1-17.1c0.3-5.7,1.4-11.2,3.3-16.4c1.9-5.2,4.6-9.7,8.2-13.5c2.7-2.7,5.5-4.7,8.4-6.1c3-1.4,6-2.3,9-2.7
				c3-0.4,6.1-0.4,9.1,0c3,0.4,5.9,1,8.6,1.8C1147,364.3,1153.3,367.5,1159.7,371.8z M1123.2,392.9c-1.4,3.7-2.3,7.7-2.7,11.8
				c-0.4,4.1-0.5,7.9-0.2,11.4c0.2,3.4,0.7,6.3,1.5,8.7c0.8,2.3,1.7,3.6,2.8,3.7c2.2,0.6,4.5,0.2,6.9-1.4c2.4-1.6,5.7-4.8,9.7-9.6
				c1.9-2.5,3.8-5.5,5.7-9.1c1.9-3.6,3.6-7.1,4.9-10.5c1.3-3.4,2.1-6.5,2.5-9.1c0.3-2.6-0.1-4.2-1.2-4.7c-1.3-0.5-3.2-0.9-6-1.4
				c-2.7-0.5-5.6-0.5-8.7-0.2c-3,0.3-6,1.2-8.9,2.7C1126.7,386.6,1124.6,389.2,1123.2,392.9z"/>
		</g>
	</g>
</g>
<g id="Isotipo">
	<g id="XMLID_1_">
		<g>
			<path id="XMLID_4_" class="st3" d="M499.5,735l-111.3,0c-7.9,0-15.2-3.7-20.4-9.6c-5.2-5.9-8.5-14-8.5-23l0-145l9.8,0l0,142.6
				c0,4.2,1.5,8,3.9,10.8c2.4,2.8,5.8,4.5,9.4,4.5l111.4,0c3.7,0,7-1.7,9.4-4.5c2.4-2.8,3.9-6.6,3.9-10.8v-93.3h19.7V697
				c1,8.9-2.2,16.9-7.4,22.7C514.5,725.5,499.5,735,499.5,735z"/>
			<path class="st4" d="M499.5,748.2C499.5,748.2,499.5,748.2,499.5,748.2l-111.3,0c-11.5,0-22.2-5-30.2-14
				c-7.6-8.6-11.8-19.8-11.8-31.7l0-145c0-3.5,1.4-6.8,3.9-9.3c2.5-2.5,5.8-3.8,9.3-3.8c0,0,0,0,0,0l9.8,0c7.3,0,13.1,5.9,13.1,13.1
				l0,142.6c0,1,0.3,1.7,0.7,2.1c0,0,0,0,0,0l110.5,0c0.3-0.4,0.7-1,0.7-2.1v-93.3c0-7.3,5.9-13.1,13.1-13.1h19.7
				c7.3,0,13.1,5.9,13.1,13.1v89.5c1.1,11.6-2.8,23.2-10.7,32.1c-6.1,6.9-20.2,16-23,17.7C504.5,747.5,502,748.2,499.5,748.2z
				 M494,702.2L494,702.2L494,702.2z"/>
		</g>
		<path id="XMLID_20_" class="st3" d="M420.7,821.7c-17.2-12.3-21.2-36.2-9-53.4c12.3-17.2,36.2-21.2,53.4-9
			c17.2,12.3,21.2,36.2,9,53.4C461.8,830,437.9,834,420.7,821.7z"/>
		<g>
			<path id="XMLID_3_" class="st5" d="M221.3,452.7l0,115.7c0,7.9,3.8,15,9.8,20.2c6.1,5.2,14.4,8.4,23.6,8.4l94.8,0v-19.7l-92.9,0
				c-4.3,0-8.2-1.5-11-3.9c-2.8-2.4-4.6-5.8-4.6-9.4l0-111.4c0-3.7,1.8-7,4.6-9.4c2.8-2.4,6.7-3.9,11-3.9h152.1v-19.7H255.3
				c-8.9,4.8-16.9,8-22.7,13.1C226.7,437.7,221.3,452.7,221.3,452.7z"/>
			<path class="st6" d="M254.8,610.1c-12,0-23.4-4.1-32.1-11.5c-9.2-7.8-14.4-18.8-14.4-30.1l0-115.7c0-1.5,0.3-3,0.8-4.4
				c1.5-4.3,7.1-18.7,14.9-25.5c5.5-4.9,11.9-8.1,18.6-11.4c2.2-1.1,4.4-2.2,6.7-3.4c1.9-1,4-1.6,6.2-1.6h153.5
				c7.3,0,13.1,5.9,13.1,13.1v19.7c0,7.3-5.9,13.1-13.1,13.1H256.6h0c-1.5,0-2.3,0.6-2.5,0.8c0,0,0,0,0,0l0,110.3
				c0.6,0.5,1.4,0.8,2.5,0.8l92.9,0c0,0,0,0,0,0c3.5,0,6.8,1.4,9.3,3.8c2.5,2.5,3.8,5.8,3.8,9.3v19.7c0,7.3-5.9,13.1-13.1,13.1
				L254.8,610.1C254.8,610.1,254.8,610.1,254.8,610.1z"/>
		</g>
		<path id="XMLID_18_" class="st5" d="M130.5,531.6c12.3,17.2,36.2,21.2,53.4,9c17.2-12.3,21.2-36.2,9-53.4
			c-12.3-17.2-36.2-21.2-53.4-9C122.3,490.4,118.3,514.3,130.5,531.6z"/>
		<g>
			<path id="XMLID_5_" class="st7" d="M675,556.1l0-118.1c0-7.9-3.7-15-9.6-20.2c-5.9-5.2-14.1-8.4-23.2-8.4l-95.4,0l0,19.7l93.2,0
				c4.2,0,8,1.5,10.8,3.9c2.8,2.4,4.5,5.8,4.5,9.4l0,111.4c0,3.7-1.7,7-4.5,9.4c-2.8,2.4-6.6,3.9-10.8,3.9H497.5v19.7h142.9
				c8.9-2.4,16.9-5.6,22.7-10.8C669,571.1,675,556.1,675,556.1z"/>
			<path class="st1" d="M640.4,600.2H497.5c-7.3,0-13.1-5.9-13.1-13.1v-19.7c0-7.3,5.9-13.1,13.1-13.1h142.6c1.2,0,1.9-0.5,2.1-0.7
				c0,0,0,0,0,0l0-110.5c-0.4-0.3-1-0.7-2.1-0.7l-93.2,0c0,0,0,0,0,0c-3.5,0-6.8-1.4-9.3-3.8c-2.5-2.5-3.9-5.8-3.9-9.3l0-19.7
				c0-7.3,5.9-13.1,13.1-13.1l95.4,0c0,0,0,0,0,0c11.9,0,23.2,4.1,31.8,11.6c9,7.8,14.1,18.8,14.1,30.1l0,118.1c0,1.7-0.3,3.4-1,4.9
				c-1.7,4.2-7.8,18.4-15.4,25.1c-6.7,5.9-15.6,10.2-28,13.6C642.7,600.1,641.6,600.2,640.4,600.2z"/>
		</g>
		<path id="XMLID_14_" class="st8" d="M765.1,477.3c-12.3-17.2-36.2-21.2-53.4-9c-17.2,12.3-21.2,36.2-9,53.4
			c12.3,17.2,36.2,21.2,53.4,9C773.4,518.4,777.4,494.5,765.1,477.3z"/>
		<g>
			<path id="XMLID_2_" class="st9" d="M396.1,281.3l111.9,0c8,0,15.2,3.7,20.4,9.6c5.2,5.9,8.5,14.1,8.5,23.1l0,144.9l-19.7,0
				l0-142.5c0-4.2-1.5-8-3.9-10.8c-2.4-2.8-5.8-4.5-9.4-4.5l-111.4,0c-3.7,0-7,1.7-9.4,4.5c-2.4,2.8-3.9,6.6-3.9,10.8v93.2h-9.9
				v-97.7c-1.7-8.9,1.5-16.9,6.7-22.7C381.1,283.3,396.1,281.3,396.1,281.3z"/>
			<path class="st0" d="M536.9,472L536.9,472l-19.7,0c-3.5,0-6.8-1.4-9.3-3.9c-2.5-2.5-3.8-5.8-3.8-9.3l0-142.5c0-1-0.4-1.8-0.7-2.2
				c0,0,0,0,0,0l-110.4,0c-0.3,0.4-0.7,1.1-0.7,2.2v93.2c0,7.3-5.9,13.1-13.1,13.1h-9.9c-7.3,0-13.1-5.9-13.1-13.1v-96.6
				c-1.8-11.5,1.8-23.3,10-32.6c7.8-8.8,23.6-11.5,28.3-12.1c0.6-0.1,1.1-0.1,1.7-0.1c0,0,0,0,0,0l111.9,0c11.5,0,22.3,5,30.3,14
				c7.6,8.6,11.8,19.9,11.8,31.8l0,144.9C550,466.1,544.2,472,536.9,472z"/>
		</g>
		<path id="XMLID_9_" class="st2" d="M475,187.1c17.2,12.3,21.2,36.2,9,53.4c-12.3,17.2-36.2,21.2-53.4,9
			c-17.2-12.3-21.2-36.2-9-53.4C433.9,178.9,457.8,174.8,475,187.1z"/>
	</g>
</g>
</svg>
